<?xml version="1.0" standalone="no"?>
<!DOCTYPE svg PUBLIC "-//W3C//DTD SVG 20010904//EN"
 "http://www.w3.org/TR/2001/REC-SVG-20010904/DTD/svg10.dtd">
<svg version="1.0" xmlns="http://www.w3.org/2000/svg"
 width="2000.000000pt" height="2000.000000pt" viewBox="0 0 2000.000000 2000.000000"
 preserveAspectRatio="xMidYMid meet">

<g transform="translate(0.000000,2000.000000) scale(0.100000,-0.100000)"
fill="#000000" stroke="none">
<path d="M10550 16339 c-484 -59 -891 -280 -1179 -639 -42 -52 -91 -118 -109
-147 -32 -49 -35 -51 -60 -42 -15 6 -70 20 -122 32 -127 27 -402 29 -530 3
-215 -44 -413 -126 -587 -243 -111 -74 -272 -229 -346 -330 -120 -167 -209
-377 -243 -573 -9 -52 -18 -98 -21 -102 -2 -5 -43 -8 -91 -8 -293 -1 -637
-103 -877 -261 -96 -63 -273 -237 -339 -333 -96 -140 -167 -306 -208 -487 -20
-92 -23 -130 -23 -319 1 -236 10 -304 67 -480 107 -332 332 -587 649 -734 201
-93 391 -139 664 -161 166 -14 527 -15 2845 -12 2482 2 2662 4 2760 20 575 97
1011 380 1284 834 85 142 167 356 207 538 29 139 38 453 15 612 -38 274 -158
556 -326 768 -65 82 -221 231 -300 287 -284 201 -623 308 -1033 325 -149 6
-158 7 -162 27 -75 386 -222 673 -470 921 -323 322 -752 499 -1235 510 -85 2
-189 0 -230 -6z m377 -379 c293 -39 536 -144 751 -324 224 -188 381 -466 427
-756 38 -247 56 -298 118 -342 31 -22 42 -23 307 -29 185 -4 303 -12 360 -22
278 -52 516 -168 690 -334 177 -168 295 -389 347 -652 27 -133 23 -394 -6
-531 -60 -272 -167 -475 -353 -666 -232 -239 -529 -376 -898 -414 -136 -14
-5272 -13 -5451 1 -528 42 -855 252 -979 629 -40 121 -64 308 -57 434 27 463
281 773 741 905 131 37 219 49 451 60 156 7 186 11 228 31 81 38 119 122 131
288 29 384 274 709 658 872 144 61 215 74 413 74 l180 0 135 -42 c203 -64 240
-66 300 -16 17 15 73 90 124 168 182 274 334 416 571 532 145 71 288 113 460
137 63 9 277 7 352 -3z"/>
<path d="M10070 14674 c-711 -49 -1303 -482 -1510 -1104 -81 -242 -112 -620
-64 -757 40 -112 186 -157 286 -90 66 45 72 68 79 307 6 198 9 225 38 333 65
246 194 454 376 607 352 295 866 399 1312 266 267 -80 499 -236 674 -454 l60
-74 -54 -57 c-175 -183 -264 -382 -256 -569 3 -68 8 -84 32 -115 91 -120 286
-90 330 51 9 26 18 71 21 99 13 105 72 203 173 287 123 103 270 156 429 156
119 0 197 -24 300 -92 66 -43 88 -52 135 -56 107 -8 186 59 196 167 8 83 -19
136 -100 197 -213 160 -508 210 -797 135 -67 -18 -76 -18 -85 -4 -31 48 -147
188 -209 251 -256 263 -595 437 -966 496 -100 16 -307 26 -400 20z"/>
<path d="M9180 11095 c0 -3 -20 -105 -45 -226 -25 -122 -45 -225 -45 -230 0
-5 141 -9 330 -9 228 0 330 -3 330 -11 0 -16 -54 -275 -209 -999 -204 -956
-248 -1170 -243 -1175 8 -8 536 -5 549 3 6 4 28 86 48 182 20 96 52 245 70
330 19 85 55 254 80 375 25 121 52 249 60 285 61 277 91 417 130 602 24 117
51 249 61 293 26 128 -19 114 397 117 l362 3 41 195 c22 107 44 212 48 233 l7
37 -986 0 c-542 0 -985 -2 -985 -5z"/>
<path d="M16350 11090 c-7 -4 -99 -432 -370 -1720 -44 -212 -99 -466 -120
-565 -53 -240 -72 -344 -65 -354 7 -12 542 -14 549 -2 6 9 48 200 161 736 36
171 69 320 75 333 l10 22 502 -2 c328 -2 502 -6 501 -13 -2 -17 -61 -304 -83
-405 -11 -52 -27 -126 -36 -165 -8 -38 -19 -90 -24 -115 -5 -25 -25 -121 -44
-214 -20 -93 -33 -172 -30 -175 10 -11 545 -7 553 4 4 6 42 177 85 380 43 204
106 505 141 670 189 888 335 1577 335 1581 0 2 -127 4 -282 4 l-283 0 -48
-238 c-26 -130 -70 -345 -98 -477 -27 -132 -55 -267 -62 -300 l-12 -60 -512
-3 c-453 -2 -513 0 -513 13 0 14 17 92 126 590 38 172 94 449 94 465 0 10
-535 20 -550 10z"/>
<path d="M2522 11003 c-26 -110 -114 -533 -116 -553 -1 -13 118 -16 994 -20
l995 -5 47 -23 c27 -13 58 -38 70 -55 32 -44 30 -147 -5 -287 -15 -58 -38
-160 -51 -226 -40 -198 -92 -325 -145 -363 -28 -20 -110 -45 -176 -55 -22 -3
-292 -6 -600 -6 l-560 -1 3 38 c2 21 25 148 52 283 27 135 51 263 52 285 l3
40 -380 0 -380 0 -12 -40 c-6 -22 -25 -107 -42 -190 -18 -82 -38 -179 -46
-215 -8 -36 -42 -195 -75 -355 -33 -159 -67 -319 -75 -355 -8 -36 -28 -132
-45 -215 -17 -82 -37 -180 -45 -217 -8 -38 -22 -98 -30 -135 -8 -38 -44 -207
-80 -378 -37 -170 -75 -350 -86 -400 -11 -49 -18 -94 -15 -100 2 -6 136 -10
382 -9 316 0 379 3 386 15 7 13 53 222 219 1009 28 135 55 253 60 262 8 15 72
17 806 21 761 4 803 5 903 25 242 49 355 112 451 254 87 128 136 271 212 618
124 565 156 718 166 790 37 271 15 415 -76 506 -38 39 -108 76 -173 94 -152
42 -178 43 -1397 47 l-1171 4 -20 -88z"/>
<path d="M6538 11079 c-321 -26 -504 -100 -611 -247 -114 -155 -159 -295 -277
-862 -22 -107 -47 -224 -55 -260 -14 -60 -44 -206 -145 -690 -21 -102 -64
-304 -95 -450 -31 -146 -68 -321 -82 -390 -22 -104 -27 -152 -27 -285 -1 -144
1 -165 21 -207 63 -137 153 -191 373 -222 86 -13 271 -16 1035 -20 512 -2
1051 -1 1200 3 l270 6 22 105 c12 58 39 191 61 295 22 105 42 201 44 215 l3
25 -1025 5 -1025 5 -41 22 c-23 12 -54 37 -69 54 -26 32 -27 35 -22 133 3 68
20 173 51 321 26 121 53 252 61 290 8 39 28 135 45 215 17 80 51 240 75 355
115 553 141 666 172 740 48 114 97 155 216 179 66 14 207 16 1067 16 l990 0
10 23 c5 12 26 99 45 192 48 226 84 395 91 423 l6 22 -1143 -1 c-629 -1 -1188
-5 -1241 -10z"/>
<path d="M11445 11068 c-6 -26 -86 -418 -88 -433 -1 -7 361 -11 1066 -13
l1067 -2 9 22 c5 13 27 111 50 218 23 107 44 203 47 213 5 16 -50 17 -1070 17
l-1076 0 -5 -22z"/>
<path d="M14271 11079 c-261 -30 -374 -114 -466 -343 -27 -69 -63 -216 -120
-491 -31 -148 -90 -430 -131 -625 -41 -195 -90 -427 -109 -515 -59 -278 -64
-367 -29 -477 19 -59 85 -120 152 -142 107 -35 213 -39 1075 -40 556 -1 851 2
856 9 12 16 103 445 98 459 -4 10 -163 13 -746 14 -671 1 -744 3 -776 18 -86
40 -86 77 -5 449 22 99 63 290 90 425 123 591 143 667 194 725 59 69 49 69
878 73 l737 3 11 52 c47 225 81 385 86 400 5 16 -40 17 -858 16 -475 -1 -897
-5 -937 -10z"/>
<path d="M11285 10328 c-2 -7 -24 -114 -50 -238 -26 -124 -58 -277 -71 -340
-14 -63 -38 -178 -54 -255 -16 -77 -50 -239 -75 -360 -97 -465 -136 -667 -132
-678 3 -9 270 -13 1066 -16 l1061 -3 9 24 c5 14 19 72 31 129 53 245 66 324
58 330 -6 3 -358 6 -784 6 -426 0 -777 2 -779 5 -6 6 102 549 116 586 l9 22
359 0 359 0 7 48 c4 26 24 123 46 216 21 93 39 177 39 187 0 18 -16 19 -355
19 -195 0 -355 2 -355 3 0 2 14 71 30 152 17 81 30 154 30 162 0 19 -559 20
-565 1z"/>
<path d="M9211 8133 c-5 -21 -11 -51 -13 -68 l-3 -30 195 0 c107 0 205 -4 218
-8 27 -10 27 -24 3 -137 -64 -293 -70 -316 -95 -332 -6 -4 -68 -8 -138 -8
-111 0 -128 2 -128 16 0 9 18 95 40 191 22 97 40 180 40 184 0 5 -36 9 -79 9
-67 0 -80 -3 -85 -17 -7 -24 -106 -507 -106 -517 0 -5 118 -7 263 -4 217 4
267 7 294 21 63 33 67 47 179 584 17 85 9 114 -41 138 -27 12 -78 15 -284 15
l-250 0 -10 -37z"/>
<path d="M10805 8143 c-3 -16 -10 -43 -15 -62 -5 -19 -7 -38 -4 -42 3 -5 91
-7 197 -6 106 1 203 -2 216 -7 22 -8 23 -12 18 -65 -4 -31 -13 -73 -21 -93
-19 -43 -37 -48 -188 -48 l-110 0 7 38 c4 20 9 49 12 65 l6 27 -82 0 c-44 0
-81 -1 -81 -3 0 -9 -92 -446 -100 -476 -17 -61 -17 -61 64 -61 41 0 78 4 81
10 3 5 17 62 30 126 13 65 29 122 35 128 12 12 209 15 253 3 31 -8 31 -2 0
-157 -23 -114 -28 -105 57 -105 l75 0 27 105 c17 66 27 129 27 170 -1 50 5 78
24 118 14 30 35 107 48 172 22 113 22 119 5 144 -9 15 -28 31 -42 36 -14 6
-140 10 -279 10 l-255 0 -5 -27z"/>
<path d="M12399 8143 c-5 -15 -13 -46 -16 -70 l-6 -43 304 2 304 3 11 50 c22
94 53 85 -286 85 l-300 0 -11 -27z"/>
<path d="M14122 8122 c-12 -27 -67 -142 -123 -258 -152 -314 -209 -435 -209
-445 0 -6 34 -9 82 -7 l82 3 31 55 31 55 109 0 110 0 5 -55 5 -55 88 -3 87 -3
0 28 c0 44 -30 601 -36 671 l-6 62 -118 0 -118 0 -20 -48z m94 -329 c5 -54 9
-105 9 -113 0 -12 -12 -14 -65 -12 -36 2 -67 6 -69 7 -5 5 103 215 110 215 4
0 10 -44 15 -97z"/>
<path d="M15540 8163 c0 -5 -16 -82 -36 -173 -64 -298 -114 -543 -114 -562 0
-16 9 -18 75 -18 73 0 75 0 81 28 3 15 9 41 14 57 5 17 18 82 30 145 26 134
29 145 36 137 3 -3 14 -81 25 -174 10 -92 21 -174 24 -180 3 -9 28 -13 75 -13
l70 0 23 38 c13 20 57 99 96 174 40 76 77 140 82 143 10 7 8 -3 -32 -200 -16
-77 -25 -143 -20 -148 4 -4 39 -7 77 -5 l69 3 27 120 c32 137 129 592 131 615
2 12 -15 16 -89 18 l-92 3 -125 -219 c-175 -307 -161 -289 -171 -214 -18 122
-68 416 -72 424 -6 10 -184 11 -184 1z"/>
<path d="M17335 8163 c-27 -7 -75 -52 -87 -83 -15 -40 -58 -217 -58 -242 0
-13 9 -37 20 -55 27 -46 77 -57 247 -58 80 0 146 -5 152 -10 13 -15 -5 -125
-24 -144 -13 -13 -52 -17 -237 -21 l-221 -5 -13 -60 c-6 -33 -8 -64 -4 -68 4
-5 124 -7 266 -5 239 3 262 5 294 23 44 26 67 67 91 158 39 153 35 207 -23
250 -23 17 -45 20 -193 23 -92 1 -171 6 -175 11 -9 10 16 133 30 147 7 7 91
12 231 14 248 4 228 -4 243 90 l6 42 -262 -1 c-145 -1 -272 -3 -283 -6z"/>
<path d="M12321 7788 c-19 -90 -44 -208 -56 -263 -13 -55 -21 -103 -19 -107 3
-5 140 -8 304 -8 l300 0 6 28 c3 15 10 43 15 62 5 19 9 38 9 43 0 4 -99 7
-219 7 -121 0 -222 3 -225 8 -7 12 25 156 38 165 6 4 53 6 103 5 51 -1 94 0
96 3 8 11 26 123 21 131 -3 5 -47 8 -97 7 -99 -2 -98 -3 -86 56 4 18 -2 20
-77 23 l-80 3 -33 -163z"/>
<path d="M16378 7252 c-23 -10 -148 -121 -148 -133 0 -15 52 -10 95 10 53 24
175 113 169 123 -6 10 -92 9 -116 0z"/>
<path d="M8785 7031 c-52 -13 -112 -49 -133 -79 -31 -42 -49 -94 -82 -236 -48
-201 -44 -282 16 -321 90 -59 509 -60 621 -2 51 27 97 100 109 176 l7 41 -47
0 c-42 0 -46 -2 -52 -27 -11 -45 -44 -92 -76 -109 -26 -13 -64 -15 -242 -12
-265 4 -261 3 -253 102 7 84 50 267 74 314 29 57 59 66 236 70 174 5 255 -2
283 -23 14 -10 19 -27 20 -67 l0 -53 42 -3 c37 -3 43 0 52 23 15 40 12 127 -6
153 -36 52 -62 56 -309 59 -126 1 -243 -2 -260 -6z"/>
<path d="M9648 7026 c-122 -33 -166 -105 -212 -344 -30 -150 -32 -189 -12
-235 20 -48 58 -68 165 -84 107 -17 339 -12 449 8 75 14 136 55 169 114 26 48
93 336 93 400 0 59 -20 97 -67 127 -37 22 -45 23 -288 25 -180 2 -263 -1 -297
-11z m505 -99 c15 -9 29 -28 33 -42 3 -13 -6 -82 -21 -152 -41 -191 -51 -219
-88 -245 -31 -22 -41 -23 -253 -26 -181 -3 -228 -1 -258 12 l-36 15 0 64 c0
68 42 272 64 316 21 39 52 63 94 72 20 4 127 7 237 6 173 -2 205 -4 228 -20z"/>
<path d="M14925 7031 c-70 -18 -125 -63 -160 -131 -24 -46 -85 -324 -85 -386
0 -48 23 -99 55 -120 38 -25 92 -33 265 -39 262 -10 377 22 426 118 15 28 44
114 44 130 0 4 -21 7 -48 7 l-47 0 -17 -48 c-10 -26 -29 -59 -43 -72 -27 -25
-27 -25 -243 -25 -119 0 -229 3 -244 8 -27 7 -28 10 -28 71 0 72 42 273 68
325 9 19 30 44 45 55 27 20 42 21 240 21 257 0 257 0 257 -85 l0 -60 39 0 c48
0 60 14 68 79 7 65 -9 104 -56 133 -34 22 -46 23 -271 25 -129 1 -248 -2 -265
-6z"/>
<path d="M16047 7029 c-128 -30 -175 -105 -228 -361 -32 -158 -24 -229 31
-269 77 -57 489 -65 635 -13 42 15 86 57 111 106 38 75 84 286 84 386 0 81 -1
85 -30 112 -18 17 -50 33 -81 39 -59 13 -467 13 -522 0z m490 -97 c52 -29 51
-65 -3 -284 -47 -189 -34 -182 -323 -186 -160 -2 -232 0 -253 9 -56 23 -58 71
-11 269 50 208 53 209 378 207 132 -2 197 -6 212 -15z"/>
<path d="M16888 7032 c-27 -2 -48 -6 -48 -10 0 -4 -18 -95 -41 -202 -64 -308
-89 -433 -89 -442 0 -5 21 -8 48 -6 46 3 47 4 58 43 7 22 20 78 29 125 10 47
23 110 30 140 7 30 21 94 30 143 10 48 21 87 26 87 7 0 134 -153 334 -403
l110 -137 67 0 c55 0 68 3 72 18 5 17 70 323 107 507 11 55 23 108 25 118 5
15 -2 17 -48 17 l-54 0 -33 -167 c-36 -182 -77 -362 -83 -368 -2 -2 -88 101
-191 228 -250 310 -238 296 -272 305 -16 4 -51 6 -77 4z"/>
<path d="M1666 6999 c-12 -62 -19 -59 143 -59 83 0 152 -3 155 -8 2 -4 -11
-77 -31 -162 -47 -210 -81 -389 -75 -395 9 -8 90 -6 96 3 3 5 10 35 15 68 6
32 17 91 26 129 9 39 27 129 42 200 14 72 29 137 33 145 6 12 36 16 163 18
l155 2 6 28 c4 15 9 35 12 45 5 16 -17 17 -364 17 l-369 0 -7 -31z"/>
<path d="M2458 6903 c-15 -71 -45 -215 -67 -322 -22 -106 -38 -198 -35 -202 3
-5 25 -9 49 -9 38 0 45 3 50 23 3 12 16 76 30 142 21 104 85 407 100 473 5 21
2 22 -47 22 l-53 0 -27 -127z"/>
<path d="M2725 7018 c-2 -7 -20 -92 -40 -188 -20 -96 -49 -236 -66 -310 -16
-75 -29 -139 -29 -143 0 -9 648 -9 654 1 2 4 7 24 11 45 l7 37 -269 0 c-148 0
-272 2 -275 5 -6 6 30 186 38 195 3 3 122 7 265 8 l259 4 10 36 c5 21 10 40
10 45 0 4 -117 7 -260 7 l-260 0 0 28 c0 15 4 43 9 62 5 19 12 47 15 63 l6 27
275 0 c150 0 276 3 278 8 2 4 7 24 11 45 l7 37 -326 0 c-252 0 -327 -3 -330
-12z"/>
<path d="M3436 6847 c-21 -100 -52 -240 -67 -312 -38 -175 -39 -165 20 -165
46 0 50 2 55 28 3 15 26 122 51 237 26 116 49 225 52 243 3 17 11 32 17 31 6
0 90 -100 186 -221 96 -121 195 -243 219 -270 l44 -49 65 3 65 3 18 90 c19 94
29 140 77 365 17 74 33 150 36 168 l6 33 -52 -3 -52 -3 -56 -262 c-31 -148
-59 -261 -65 -260 -10 3 -131 149 -338 406 l-98 121 -72 0 -72 0 -39 -183z"/>
<path d="M4405 7003 c-3 -15 -31 -147 -61 -293 -30 -146 -59 -278 -64 -294 -6
-17 -7 -33 -1 -39 4 -4 152 -7 327 -5 298 3 322 4 364 24 53 25 105 80 131
141 23 54 69 277 69 335 0 60 -27 108 -75 132 -38 20 -59 21 -361 24 l-322 3
-7 -28z m600 -74 c29 -7 47 -18 51 -31 14 -45 -30 -288 -65 -357 -37 -71 -52
-75 -338 -79 -162 -3 -253 0 -253 6 0 13 89 443 95 460 6 16 446 17 510 1z"/>
<path d="M5558 6973 c-25 -32 -140 -178 -256 -325 -117 -148 -212 -270 -212
-273 0 -8 104 -6 115 3 6 4 27 30 48 58 20 28 49 57 64 63 19 8 102 11 258 9
l230 -3 10 -24 c6 -14 19 -43 30 -65 19 -40 22 -41 74 -44 41 -2 52 0 49 10
-60 161 -122 331 -133 358 -18 47 -69 184 -90 243 l-18 47 -62 0 -62 0 -45
-57z m114 -108 c66 -170 88 -232 88 -247 0 -17 -15 -18 -185 -18 -158 0 -185
2 -178 14 21 38 239 305 247 303 4 -2 17 -25 28 -52z"/>
<path d="M6566 7003 c-3 -15 -30 -145 -60 -288 -31 -143 -58 -279 -62 -303
l-7 -43 329 3 c316 3 331 4 370 25 96 51 134 127 178 351 32 160 19 218 -57
259 -28 16 -69 18 -359 21 l-326 3 -6 -28z m627 -86 c23 -15 27 -24 27 -68 0
-62 -53 -290 -76 -324 -36 -55 -57 -59 -333 -63 l-254 -4 6 33 c10 52 89 422
93 437 3 11 55 13 257 10 222 -3 256 -5 280 -21z"/>
<path d="M7485 7018 c-13 -34 -133 -633 -129 -640 3 -4 149 -8 324 -8 l319 0
10 38 c6 20 11 40 11 45 0 4 -121 7 -269 7 -149 0 -272 4 -275 8 -8 13 33 185
46 194 7 4 126 8 265 8 l252 0 10 38 c6 20 11 40 11 45 0 4 -117 7 -260 7
l-260 0 0 23 c1 12 6 51 13 87 l12 65 275 3 c151 1 277 6 281 10 4 4 10 24 13
45 l7 37 -326 0 c-251 0 -327 -3 -330 -12z"/>
<path d="M10446 6988 c-4 -24 -23 -117 -42 -208 -65 -298 -83 -394 -78 -402 3
-4 25 -8 49 -8 l44 0 11 58 c17 82 90 414 96 435 3 9 8 17 12 17 4 0 25 -37
46 -83 119 -250 191 -394 204 -409 9 -10 29 -18 47 -18 33 0 28 -5 322 319 18
20 66 73 106 119 45 51 73 77 75 67 4 -17 -22 -155 -67 -357 -17 -76 -31 -140
-31 -143 0 -3 22 -5 50 -5 59 0 46 -35 124 340 30 146 57 277 61 293 l7 27
-70 0 -70 0 -178 -197 c-261 -291 -292 -323 -308 -323 -15 0 -35 39 -172 330
-95 201 -81 185 -162 188 l-69 3 -7 -43z"/>
<path d="M11616 7022 c-10 -16 -136 -608 -136 -637 0 -11 13 -15 49 -15 l49 0
10 43 c6 23 16 71 22 107 6 36 13 72 16 82 4 14 32 17 252 20 259 4 293 9 346
56 35 31 68 122 73 204 7 89 1 101 -62 129 -36 17 -71 19 -327 19 -158 0 -289
-4 -292 -8z m565 -102 c13 -20 1 -108 -20 -145 -29 -51 -46 -55 -289 -55
l-222 0 6 28 c3 15 12 52 19 82 7 30 16 68 19 83 l7 29 235 -4 c195 -2 236 -6
245 -18z"/>
<path d="M12406 7018 c-19 -64 -88 -406 -93 -463 -7 -82 7 -138 41 -160 65
-43 344 -60 501 -30 169 33 196 78 274 465 16 80 32 157 36 173 l7 27 -56 0
c-31 0 -56 -2 -56 -5 0 -33 -93 -455 -108 -487 -32 -74 -55 -80 -297 -76 -237
3 -239 4 -237 85 0 26 21 139 46 251 26 112 46 210 46 218 0 18 -99 20 -104 2z"/>
<path d="M13237 7023 c-3 -5 -7 -24 -9 -43 l-3 -35 153 -3 c144 -2 152 -4 152
-22 0 -11 -22 -125 -49 -253 -67 -314 -67 -291 -9 -295 56 -4 45 -33 113 303
26 127 50 237 55 245 6 12 36 16 163 18 l155 2 6 28 c4 15 9 35 12 45 5 16
-17 17 -365 17 -203 0 -372 -3 -374 -7z"/>
<path d="M14084 6828 c-88 -110 -203 -257 -256 -325 -54 -68 -98 -126 -98
-128 0 -3 26 -5 58 -5 l57 0 39 55 c63 88 53 85 320 85 177 0 237 -3 243 -12
4 -7 17 -38 29 -68 l21 -55 48 -3 c55 -4 72 7 56 34 -11 21 -37 90 -156 412
l-78 212 -62 0 -63 0 -158 -202z m267 -68 c32 -85 59 -156 59 -157 0 -2 -86
-3 -191 -3 -105 0 -189 4 -187 8 9 23 244 311 252 309 4 -2 35 -72 67 -157z"/>
<path d="M15666 7013 c-2 -10 -19 -85 -36 -168 -17 -82 -46 -220 -65 -305 -18
-85 -30 -159 -25 -163 4 -5 27 -7 51 -5 l44 3 13 60 c7 33 36 168 63 300 27
132 53 252 56 268 5 27 5 27 -45 27 -40 0 -52 -4 -56 -17z"/>
</g>
</svg>
