<?xml version="1.0" standalone="no"?>
<!DOCTYPE svg PUBLIC "-//W3C//DTD SVG 20010904//EN"
 "http://www.w3.org/TR/2001/REC-SVG-20010904/DTD/svg10.dtd">
<svg version="1.0" xmlns="http://www.w3.org/2000/svg"
 width="2000.000000pt" height="2000.000000pt" viewBox="0 0 2000.000000 2000.000000"
 preserveAspectRatio="xMidYMid meet">

<g transform="translate(0.000000,2000.000000) scale(0.100000,-0.100000)"
fill="#000000" stroke="none">
<path d="M10512 17189 c-94 -7 -290 -49 -582 -123 -247 -64 -438 -155 -675
-325 -187 -134 -238 -175 -320 -252 l-60 -58 -110 -4 c-147 -6 -209 -17 -480
-82 -357 -87 -373 -92 -510 -161 -146 -74 -214 -119 -461 -303 -100 -75 -272
-251 -347 -356 -127 -178 -224 -329 -252 -395 -16 -36 -30 -67 -31 -68 -1 -2
-53 -17 -116 -32 -267 -68 -431 -139 -628 -274 -231 -159 -344 -257 -456 -396
-229 -285 -354 -508 -408 -728 -8 -31 -36 -142 -62 -247 l-47 -190 0 -300 0
-300 62 -260 c62 -260 83 -331 121 -405 11 -22 17 -40 13 -40 -5 1 -44 10 -88
22 -79 21 -92 21 -1310 25 l-1230 4 -187 -45 c-102 -24 -193 -48 -201 -53 -7
-4 -57 -39 -111 -78 -83 -60 -108 -85 -172 -173 -74 -102 -92 -134 -112 -202
-13 -45 -98 -414 -192 -835 -11 -49 -20 -109 -20 -132 0 -23 -6 -62 -14 -85
-19 -58 -115 -474 -131 -568 -3 -19 -24 -114 -45 -210 -21 -96 -46 -211 -55
-255 -9 -44 -22 -109 -29 -145 -8 -36 -24 -114 -36 -175 -12 -60 -39 -186 -60
-280 -21 -93 -46 -208 -55 -255 -9 -47 -23 -112 -30 -145 -7 -33 -16 -80 -20
-105 -8 -57 -61 -302 -130 -597 -8 -34 -15 -87 -15 -118 0 -31 -5 -66 -11 -77
-19 -36 -99 -389 -99 -438 0 -45 80 -406 96 -432 4 -7 27 -39 51 -72 26 -35
43 -69 43 -86 0 -15 20 -112 45 -215 33 -139 51 -198 70 -224 15 -20 50 -69
78 -109 40 -58 73 -89 151 -145 55 -40 106 -76 114 -80 7 -5 97 -29 199 -53
210 -50 271 -53 383 -24 94 25 123 25 218 1 71 -18 118 -20 629 -20 l552 -1
141 34 140 33 139 -33 138 -33 484 4 c266 1 495 4 509 4 14 1 68 -1 120 -4 88
-6 107 -4 260 33 l165 40 160 -38 c191 -47 244 -49 392 -14 l113 27 112 -27
c110 -26 121 -26 441 -26 272 0 339 3 394 17 61 15 70 15 137 -1 58 -13 127
-16 391 -16 l320 0 158 37 157 37 163 -39 162 -40 270 1 c245 1 278 3 352 23
l83 21 82 -21 c76 -20 107 -22 363 -23 235 0 290 3 342 17 58 16 68 16 122 2
79 -20 171 -19 261 5 41 11 89 20 105 20 17 0 64 -9 105 -20 96 -25 141 -25
247 2 l86 21 91 -21 c75 -17 122 -21 271 -21 179 1 180 1 365 46 102 25 196
46 210 46 14 0 111 -22 215 -48 l190 -48 260 0 c258 0 261 0 387 32 l128 31
132 -31 c114 -27 141 -30 207 -24 91 8 117 8 241 0 88 -6 107 -4 260 33 l165
40 160 -38 c159 -39 271 -49 335 -31 14 4 37 4 52 0 51 -14 420 -19 538 -8
133 13 174 14 287 4 62 -6 98 -4 151 9 65 16 72 16 133 0 94 -26 593 -26 686
-1 58 16 68 16 122 2 88 -23 170 -18 321 19 l135 32 139 -33 c183 -44 233 -43
443 7 92 22 177 42 188 45 11 2 72 42 135 88 103 75 122 94 197 197 46 63 86
126 89 140 3 14 9 36 14 50 9 26 38 148 85 350 46 204 55 244 65 314 6 38 13
72 15 76 9 15 35 208 34 250 -1 25 8 77 20 115 30 96 107 418 115 483 4 30 23
120 43 200 19 81 39 184 43 230 5 45 26 160 48 255 35 149 66 287 129 577 7
36 18 90 24 120 5 30 27 134 49 230 21 96 46 211 55 255 9 44 22 109 30 145 8
36 22 101 31 145 9 44 30 136 45 204 16 68 29 134 29 147 0 13 9 63 21 111 29
125 57 255 75 348 9 44 30 143 49 220 52 224 52 231 1 449 -34 140 -52 199
-71 225 -15 20 -50 69 -78 109 -40 58 -73 89 -151 145 -55 40 -106 76 -114 80
-7 5 -97 29 -199 53 l-186 44 -292 0 -292 0 -186 -44 c-103 -24 -192 -48 -199
-52 -7 -4 -37 -25 -65 -47 l-53 -39 -52 39 c-29 22 -59 43 -66 47 -7 4 -95 27
-196 51 l-183 44 -304 1 c-242 1 -315 -2 -356 -13 -46 -13 -60 -13 -105 -1
-44 12 -164 14 -685 14 -348 0 -633 2 -633 6 0 3 9 19 21 35 22 31 96 185 109
228 5 14 23 64 40 111 32 86 50 152 115 425 48 200 63 409 48 662 -12 181 -22
237 -109 578 -14 55 -32 124 -39 153 -7 29 -20 63 -28 75 -8 12 -33 65 -56
117 -101 232 -382 606 -576 767 -82 68 -296 222 -378 272 -85 52 -249 134
-302 151 -22 7 -50 19 -62 27 -12 8 -122 38 -245 66 l-223 52 -35 71 c-118
236 -301 491 -499 697 -110 114 -602 477 -647 477 -6 0 -53 20 -105 44 -52 24
-110 48 -129 54 -19 6 -60 19 -90 30 -48 18 -254 68 -480 116 -146 31 -434 42
-658 25z m540 -868 c390 -68 703 -226 963 -486 248 -248 395 -535 470 -921 4
-20 13 -21 162 -27 410 -17 749 -124 1033 -325 79 -56 235 -205 300 -287 168
-212 288 -494 326 -768 23 -159 14 -473 -15 -612 -144 -664 -610 -1149 -1271
-1324 -268 -70 -33 -65 -2980 -68 -2899 -4 -2898 -4 -3145 52 -308 70 -538
187 -715 365 -141 140 -236 297 -298 490 -57 176 -66 244 -67 480 0 189 3 227
23 319 41 181 112 347 208 487 66 96 243 270 339 333 240 158 584 260 877 261
48 0 89 3 91 8 3 4 12 50 21 102 34 196 123 406 243 573 74 101 235 256 346
330 174 117 372 199 587 243 128 26 403 24 530 -3 52 -12 107 -26 122 -32 25
-9 28 -7 60 42 18 29 67 95 109 147 288 359 695 580 1179 639 116 15 368 6
502 -18z m92 -5258 c-4 -21 -26 -126 -48 -233 l-41 -195 -362 -3 c-416 -3
-371 11 -397 -117 -10 -44 -37 -176 -61 -293 -39 -185 -69 -325 -130 -602 -8
-36 -35 -164 -60 -285 -25 -121 -61 -290 -80 -375 -18 -85 -50 -234 -70 -330
-20 -96 -42 -178 -48 -182 -13 -8 -541 -11 -549 -3 -5 5 39 219 243 1175 155
724 209 983 209 999 0 8 -102 11 -330 11 -189 0 -330 4 -330 9 0 5 20 108 45
230 25 121 45 223 45 226 0 3 443 5 985 5 l986 0 -7 -37z m5756 17 c0 -16 -56
-293 -94 -465 -109 -498 -126 -576 -126 -590 0 -13 60 -15 513 -13 l512 3 12
60 c7 33 35 168 62 300 28 132 72 347 98 477 l48 238 283 0 c155 0 282 -2 282
-4 0 -4 -146 -693 -335 -1581 -35 -165 -98 -466 -141 -670 -43 -203 -81 -374
-85 -380 -8 -11 -543 -15 -553 -4 -3 3 10 82 30 175 19 93 39 189 44 214 5 25
16 77 24 115 9 39 25 113 36 165 22 101 81 388 83 405 1 7 -173 11 -501 13
l-502 2 -10 -22 c-6 -13 -39 -162 -75 -333 -113 -536 -155 -727 -161 -736 -7
-12 -542 -10 -549 2 -7 10 12 114 65 354 21 99 76 353 120 565 271 1288 363
1716 370 1720 15 10 550 0 550 -10z m-11925 -12 c117 -20 169 -35 227 -64 159
-81 202 -233 157 -564 -10 -72 -42 -225 -166 -790 -76 -347 -125 -490 -212
-618 -96 -142 -209 -205 -451 -254 -100 -20 -142 -21 -903 -25 -734 -4 -798
-6 -806 -21 -5 -9 -32 -127 -60 -262 -166 -787 -212 -996 -219 -1009 -7 -12
-70 -15 -386 -15 -246 -1 -380 3 -382 9 -3 6 4 51 15 100 11 50 49 230 86 400
36 171 72 340 80 378 8 37 22 97 30 135 8 37 28 135 45 217 17 83 37 179 45
215 8 36 42 196 75 355 33 160 67 319 75 355 8 36 28 133 46 215 17 83 36 168
42 190 l12 40 380 0 380 0 -3 -40 c-1 -22 -25 -150 -52 -285 -27 -135 -50
-262 -52 -283 l-3 -38 560 1 c308 0 578 3 600 6 66 10 148 35 176 55 53 38
105 165 145 363 13 66 36 168 51 226 35 140 37 243 5 287 -12 17 -43 42 -70
55 l-47 23 -995 5 c-876 4 -995 7 -994 20 2 20 90 443 116 553 l20 88 1171 -4
c987 -4 1186 -7 1262 -19z m3941 0 c-7 -28 -43 -197 -91 -423 -19 -93 -40
-180 -45 -192 l-10 -23 -990 0 c-860 0 -1001 -2 -1067 -16 -119 -24 -168 -65
-216 -179 -31 -74 -57 -187 -172 -740 -24 -115 -58 -275 -75 -355 -17 -80 -37
-176 -45 -215 -8 -38 -35 -169 -61 -290 -31 -148 -48 -253 -51 -321 -5 -98 -4
-101 22 -133 15 -17 46 -42 69 -54 l41 -22 1025 -5 1025 -5 -3 -25 c-2 -14
-22 -110 -44 -215 -22 -104 -49 -237 -61 -295 l-22 -105 -270 -6 c-149 -4
-688 -5 -1200 -3 -764 4 -949 7 -1035 20 -220 31 -310 85 -373 222 -20 42 -22
63 -21 207 0 133 5 181 27 285 14 69 51 244 82 390 31 146 74 348 95 450 101
484 131 630 145 690 8 36 33 153 55 260 118 567 163 707 277 862 107 147 290
221 611 247 53 5 612 9 1241 10 l1143 1 -6 -22z m4680 5 c-3 -10 -24 -106 -47
-213 -23 -107 -45 -205 -50 -218 l-9 -22 -1067 2 c-705 2 -1067 6 -1066 13 2
15 82 407 88 433 l5 22 1076 0 c1020 0 1075 -1 1070 -17z m2470 0 c-5 -15 -39
-175 -86 -400 l-11 -52 -737 -3 c-829 -4 -819 -4 -878 -73 -51 -58 -71 -134
-194 -725 -27 -135 -68 -326 -90 -425 -49 -227 -60 -287 -60 -345 0 -54 17
-81 65 -104 32 -15 105 -17 776 -18 583 -1 742 -4 746 -14 5 -14 -86 -443 -98
-459 -5 -7 -300 -10 -856 -9 -862 1 -968 5 -1075 40 -67 22 -133 83 -152 142
-35 110 -30 199 29 477 19 88 68 320 109 515 41 195 100 477 131 625 57 275
93 422 120 491 92 229 205 313 466 343 40 5 462 9 937 10 818 1 863 0 858 -16z
m-4216 -746 c0 -8 -13 -81 -30 -162 -16 -81 -30 -150 -30 -152 0 -1 160 -3
355 -3 339 0 355 -1 355 -19 0 -10 -18 -94 -39 -187 -22 -93 -42 -190 -46
-216 l-7 -48 -359 0 -359 0 -9 -22 c-14 -37 -122 -580 -116 -586 2 -3 353 -5
779 -5 426 0 778 -3 784 -6 8 -6 -5 -85 -58 -330 -12 -57 -26 -115 -31 -129
l-9 -24 -1061 3 c-796 3 -1063 7 -1066 16 -4 11 35 213 132 678 25 121 59 283
75 360 16 77 40 192 54 255 13 63 45 216 71 340 26 124 48 231 50 238 6 19
565 18 565 -1z m-2095 -2172 c50 -24 58 -53 41 -138 -112 -537 -116 -551 -179
-584 -27 -14 -77 -17 -294 -21 -145 -3 -263 -1 -263 4 0 10 99 493 106 517 5
14 18 17 85 17 43 0 79 -4 79 -9 0 -4 -18 -87 -40 -184 -22 -96 -40 -182 -40
-191 0 -14 17 -16 128 -16 70 0 132 4 138 8 25 16 31 39 95 332 24 113 24 127
-3 137 -13 4 -111 8 -218 8 l-195 0 3 30 c2 17 8 47 13 68 l10 37 250 0 c206
0 257 -3 284 -15z m1589 5 c14 -5 33 -21 42 -36 17 -25 17 -31 -5 -144 -13
-65 -34 -142 -48 -172 -19 -40 -25 -68 -24 -118 0 -41 -10 -104 -27 -170 l-27
-105 -75 0 c-85 0 -80 -9 -57 105 31 155 31 149 0 157 -44 12 -241 9 -253 -3
-6 -6 -22 -63 -35 -128 -13 -64 -27 -121 -30 -126 -3 -6 -40 -10 -81 -10 -81
0 -81 0 -64 61 8 30 100 467 100 476 0 2 37 3 81 3 l82 0 -6 -27 c-3 -16 -8
-45 -12 -65 l-7 -38 110 0 c151 0 169 5 188 48 8 20 17 62 21 93 5 53 4 57
-18 65 -13 5 -110 8 -216 7 -106 -1 -194 1 -197 6 -3 4 -1 23 4 42 5 19 12 46
15 62 l5 27 255 0 c139 0 265 -4 279 -10z m1665 -7 c0 -10 -6 -40 -13 -68
l-11 -50 -304 -3 -304 -2 6 43 c3 24 11 55 16 70 l11 27 300 0 c279 0 300 -1
299 -17z m1375 -45 c6 -70 36 -627 36 -671 l0 -28 -87 3 -88 3 -5 55 -5 55
-110 0 -109 0 -31 -55 -31 -55 -82 -3 c-48 -2 -82 1 -82 7 0 10 57 131 209
445 56 116 111 231 123 258 l20 48 118 0 118 0 6 -62z m1340 54 c4 -8 54 -302
72 -424 10 -75 -4 -93 171 214 l125 219 92 -3 c74 -2 91 -6 89 -18 -2 -23 -99
-478 -131 -615 l-27 -120 -69 -3 c-38 -2 -73 1 -77 5 -5 5 4 71 20 148 40 197
42 207 32 200 -5 -3 -42 -67 -82 -143 -39 -75 -83 -154 -96 -174 l-23 -38 -70
0 c-47 0 -72 4 -75 13 -3 6 -14 88 -24 180 -11 93 -22 171 -25 174 -7 8 -10
-3 -36 -137 -12 -63 -25 -128 -30 -145 -5 -16 -11 -42 -14 -57 -6 -28 -8 -28
-81 -28 -66 0 -75 2 -75 18 0 19 50 264 114 562 20 91 36 168 36 173 0 10 178
9 184 -1z m2150 -34 c-15 -94 5 -86 -243 -90 -140 -2 -224 -7 -231 -14 -14
-14 -39 -137 -30 -147 4 -5 83 -10 175 -11 148 -3 170 -6 193 -23 58 -43 62
-97 23 -250 -24 -91 -47 -132 -91 -158 -32 -18 -55 -20 -294 -23 -142 -2 -262
0 -266 5 -4 4 -2 35 4 68 l13 60 221 5 c185 4 224 8 237 21 19 19 37 129 24
144 -6 5 -72 10 -152 10 -170 1 -220 12 -247 58 -11 18 -20 42 -20 55 0 25 43
202 58 242 12 31 60 76 87 83 11 3 138 5 283 6 l262 1 -6 -42z m-5363 -203
c-12 -59 -13 -58 86 -56 50 1 94 -2 97 -7 5 -8 -13 -120 -21 -131 -2 -3 -45
-4 -96 -3 -50 1 -97 -1 -103 -5 -13 -9 -45 -153 -38 -165 3 -5 104 -8 225 -8
120 0 219 -3 219 -7 0 -5 -4 -24 -9 -43 -5 -19 -12 -47 -15 -62 l-6 -28 -300
0 c-164 0 -301 3 -304 8 -2 4 6 52 19 107 12 55 37 173 56 263 l33 163 80 -3
c75 -3 81 -5 77 -23z m3983 -673 c6 -10 -116 -99 -169 -123 -43 -20 -95 -25
-95 -10 0 12 125 123 148 133 24 9 110 10 116 0z m-7187 -235 c17 -9 39 -27
47 -39 18 -26 21 -113 6 -153 -9 -23 -15 -26 -52 -23 l-42 3 0 53 c-1 40 -6
57 -20 67 -28 21 -109 28 -283 23 -177 -4 -207 -13 -236 -70 -24 -47 -67 -230
-74 -314 -8 -99 -12 -98 253 -102 178 -3 216 -1 242 12 32 17 65 64 76 109 6
25 10 27 52 27 l47 0 -7 -41 c-12 -76 -58 -149 -109 -176 -112 -58 -531 -57
-621 2 -60 39 -64 120 -16 321 47 201 71 249 143 286 68 35 91 37 332 35 196
-2 235 -5 262 -20z m926 -5 c78 -49 83 -101 31 -330 -40 -176 -60 -222 -121
-268 -52 -40 -120 -53 -313 -60 -164 -7 -318 11 -365 42 -33 21 -55 69 -55
119 0 51 48 290 70 347 21 57 60 111 97 135 55 37 110 42 368 40 243 -2 251
-3 288 -25z m5228 0 c47 -29 63 -68 56 -133 -8 -65 -20 -79 -68 -79 l-39 0 0
60 c0 85 0 85 -257 85 -198 0 -213 -1 -240 -21 -15 -11 -36 -36 -45 -55 -26
-52 -68 -253 -68 -325 0 -61 1 -64 28 -71 15 -5 125 -8 244 -8 216 0 216 0
243 25 14 13 33 46 43 72 l17 48 47 0 c27 0 48 -3 48 -7 0 -16 -29 -102 -44
-130 -49 -96 -164 -128 -426 -118 -230 8 -277 22 -306 90 -23 56 -17 112 37
344 28 120 67 184 133 218 55 29 87 32 326 30 225 -2 237 -3 271 -25z m1108
17 c31 -6 63 -22 81 -39 29 -27 30 -31 30 -112 0 -100 -46 -311 -84 -386 -25
-49 -69 -91 -111 -106 -100 -36 -392 -47 -535 -20 -150 28 -175 86 -131 302
53 256 100 331 228 361 55 13 463 13 522 0z m453 -41 c15 -18 112 -137 215
-265 103 -127 189 -230 191 -228 6 6 47 186 83 368 l33 167 54 0 c46 0 53 -2
48 -17 -2 -10 -14 -63 -25 -118 -37 -184 -102 -490 -107 -507 -4 -15 -17 -18
-72 -18 l-67 0 -110 137 c-200 250 -327 403 -334 403 -5 0 -16 -39 -26 -87 -9
-49 -23 -113 -30 -143 -7 -30 -20 -93 -30 -140 -9 -47 -22 -103 -29 -125 -11
-39 -12 -40 -58 -43 -27 -2 -48 1 -48 6 0 9 25 134 89 442 23 107 41 198 41
202 0 10 90 14 125 6 17 -4 42 -22 57 -40z m-14616 25 c-3 -10 -8 -30 -12 -45
l-6 -28 -155 -2 c-127 -2 -157 -6 -163 -18 -4 -8 -19 -73 -33 -145 -15 -71
-33 -161 -42 -200 -9 -38 -20 -97 -26 -129 -5 -33 -12 -63 -15 -68 -6 -9 -87
-11 -96 -3 -6 6 28 185 75 395 20 85 33 158 31 162 -3 5 -72 8 -155 8 -162 0
-155 -3 -143 59 l7 31 369 0 c347 0 369 -1 364 -17z m179 -5 c-15 -66 -79
-369 -100 -473 -14 -66 -27 -130 -30 -142 -5 -20 -12 -23 -50 -23 -24 0 -46 4
-49 9 -3 4 13 96 35 202 22 107 52 251 67 322 l27 127 53 0 c49 0 52 -1 47
-22z m789 -15 c-4 -21 -9 -41 -11 -45 -2 -5 -128 -8 -278 -8 l-275 0 -6 -27
c-3 -16 -10 -44 -15 -63 -5 -19 -9 -47 -9 -62 l0 -28 260 0 c143 0 260 -3 260
-7 0 -5 -5 -24 -10 -45 l-10 -36 -259 -4 c-143 -1 -262 -5 -265 -8 -8 -9 -44
-189 -38 -195 3 -3 127 -5 275 -5 l269 0 -7 -37 c-4 -21 -9 -41 -11 -45 -6
-10 -654 -10 -654 -1 0 4 13 68 29 143 17 74 46 214 66 310 20 96 38 181 40
188 3 9 78 12 330 12 l326 0 -7 -37z m343 -84 c207 -257 328 -403 338 -406 6
-1 34 112 65 260 l56 262 52 3 52 3 -6 -33 c-3 -18 -19 -94 -36 -168 -48 -225
-58 -271 -77 -365 l-18 -90 -65 -3 -65 -3 -44 49 c-24 27 -123 149 -219 270
-96 121 -180 221 -186 221 -6 1 -14 -14 -17 -31 -3 -18 -26 -127 -52 -243 -25
-115 -48 -222 -51 -237 -5 -26 -9 -28 -55 -28 -59 0 -58 -10 -20 165 15 72 46
212 67 312 l39 183 72 0 72 0 98 -121z m1378 95 c48 -24 75 -72 75 -132 0 -58
-46 -281 -69 -335 -26 -61 -78 -116 -131 -141 -42 -20 -66 -21 -364 -24 -175
-2 -323 1 -327 5 -6 6 -5 22 1 39 5 16 34 148 64 294 30 146 58 278 61 293 l7
28 322 -3 c302 -3 323 -4 361 -24z m650 -21 c21 -59 72 -196 90 -243 11 -27
73 -197 133 -358 3 -10 -8 -12 -49 -10 -52 3 -55 4 -74 44 -11 22 -24 51 -30
65 l-10 24 -230 3 c-156 2 -239 -1 -258 -9 -15 -6 -44 -35 -64 -63 -21 -28
-42 -54 -48 -58 -11 -9 -115 -11 -115 -3 0 3 95 125 212 273 116 147 231 293
256 325 l45 57 62 0 62 0 18 -47z m1512 24 c76 -41 89 -99 57 -259 -44 -224
-82 -300 -178 -351 -39 -21 -54 -22 -370 -25 l-329 -3 7 43 c4 24 31 160 62
303 30 143 57 273 60 288 l6 28 326 -3 c290 -3 331 -5 359 -21z m877 -14 c-3
-21 -9 -41 -13 -45 -4 -4 -130 -9 -281 -10 l-275 -3 -12 -65 c-7 -36 -12 -75
-13 -87 l0 -23 260 0 c143 0 260 -3 260 -7 0 -5 -5 -25 -11 -45 l-10 -38 -252
0 c-139 0 -258 -4 -265 -8 -13 -9 -54 -181 -46 -194 3 -4 126 -8 275 -8 148 0
269 -3 269 -7 0 -5 -5 -25 -11 -45 l-10 -38 -319 0 c-175 0 -321 4 -324 8 -4
7 116 606 129 640 3 9 79 12 330 12 l326 0 -7 -37z m2472 7 c8 -14 43 -86 78
-160 137 -291 157 -330 172 -330 16 0 47 32 308 323 l178 197 70 0 70 0 -7
-27 c-4 -16 -31 -147 -61 -293 -78 -375 -65 -340 -124 -340 -28 0 -50 2 -50 5
0 3 14 67 31 143 45 202 71 340 67 357 -2 10 -30 -16 -75 -67 -40 -46 -88 -99
-106 -119 -294 -324 -289 -319 -322 -319 -18 0 -38 8 -47 18 -13 15 -85 159
-204 409 -21 46 -42 83 -46 83 -4 0 -9 -8 -12 -17 -6 -21 -79 -353 -96 -435
l-11 -58 -44 0 c-24 0 -46 4 -49 8 -5 8 13 104 78 402 19 91 38 184 42 208 l7
43 69 -3 c62 -3 71 -6 84 -28z m1629 11 c63 -28 69 -40 62 -129 -5 -82 -38
-173 -73 -204 -53 -47 -87 -52 -346 -56 -220 -3 -248 -6 -252 -20 -3 -10 -10
-46 -16 -82 -6 -36 -16 -84 -22 -107 l-10 -43 -49 0 c-36 0 -49 4 -49 15 0 29
126 621 136 637 3 4 134 8 292 8 256 0 291 -2 327 -19z m275 5 c0 -8 -20 -106
-46 -218 -25 -112 -46 -225 -46 -251 -2 -81 0 -82 237 -85 242 -4 265 2 297
76 15 32 108 454 108 487 0 3 25 5 56 5 l56 0 -7 -27 c-4 -16 -20 -93 -36
-173 -48 -237 -60 -282 -91 -342 -39 -75 -82 -103 -183 -123 -157 -30 -436
-13 -501 30 -34 22 -48 78 -41 160 5 57 74 399 93 463 5 18 104 16 104 -2z
m1466 -3 c-3 -10 -8 -30 -12 -45 l-6 -28 -155 -2 c-127 -2 -157 -6 -163 -18
-5 -8 -29 -118 -55 -245 -68 -336 -57 -307 -113 -303 -58 4 -58 -19 9 295 27
128 49 242 49 253 0 18 -8 20 -152 22 l-153 3 3 35 c2 19 6 38 9 43 2 4 171 7
374 7 348 0 370 -1 365 -17z m469 -195 c119 -322 145 -391 156 -412 16 -27 -1
-38 -56 -34 l-48 3 -21 55 c-12 30 -25 61 -29 68 -6 9 -66 12 -243 12 -267 0
-257 3 -320 -85 l-39 -55 -57 0 c-32 0 -58 2 -58 5 0 2 44 60 98 128 53 68
168 215 256 325 l158 202 63 0 62 0 78 -212z m1322 185 c-3 -16 -29 -136 -56
-268 -27 -132 -56 -267 -63 -300 l-13 -60 -44 -3 c-24 -2 -47 0 -51 5 -5 4 7
78 25 163 19 85 48 223 65 305 17 83 34 158 36 168 4 13 16 17 56 17 50 0 50
0 45 -27z"/>
<path d="M10575 15963 c-298 -41 -535 -146 -754 -332 -83 -71 -174 -183 -277
-337 -51 -78 -107 -153 -124 -168 -60 -50 -97 -48 -300 16 l-135 42 -180 0
c-198 0 -269 -13 -413 -74 -384 -163 -629 -488 -658 -872 -12 -166 -50 -250
-131 -288 -42 -20 -72 -24 -228 -31 -232 -11 -320 -23 -451 -60 -460 -132
-714 -442 -741 -905 -7 -126 17 -313 57 -434 124 -377 451 -587 979 -629 179
-14 5315 -15 5451 -1 267 28 509 113 708 249 162 111 338 313 427 490 43 86
91 227 116 341 29 137 33 398 6 531 -38 192 -107 352 -214 501 -179 248 -467
418 -823 485 -57 10 -175 18 -360 22 -265 6 -276 7 -307 29 -62 44 -80 95
-118 342 -101 640 -680 1097 -1378 1089 -67 -1 -135 -4 -152 -6z m-105 -1309
c371 -59 710 -233 966 -496 62 -63 178 -203 209 -251 9 -14 18 -14 85 4 289
75 584 25 797 -135 81 -61 108 -114 100 -197 -10 -108 -89 -175 -196 -167 -47
4 -69 13 -135 56 -103 68 -181 92 -300 92 -294 0 -574 -205 -602 -443 -3 -28
-12 -73 -21 -99 -44 -141 -239 -171 -330 -51 -24 31 -29 47 -32 115 -8 187 81
386 256 569 l54 57 -60 74 c-175 218 -407 374 -674 454 -446 133 -960 29
-1312 -266 -182 -153 -311 -361 -376 -607 -29 -108 -32 -135 -38 -333 -7 -239
-13 -262 -79 -307 -100 -67 -246 -22 -286 90 -48 137 -17 515 64 757 207 622
799 1055 1510 1104 93 6 300 -4 400 -20z"/>
<path d="M14141 7784 c-29 -58 -52 -107 -50 -109 2 -1 33 -5 69 -7 53 -2 65 0
65 12 -1 55 -19 210 -24 210 -3 0 -30 -48 -60 -106z"/>
<path d="M9688 6941 c-42 -9 -73 -33 -94 -72 -22 -44 -64 -248 -64 -316 l0
-64 36 -15 c30 -13 77 -15 258 -12 299 4 281 -11 341 271 44 209 42 211 -240
214 -110 1 -217 -2 -237 -6z"/>
<path d="M16088 6941 c-81 -12 -103 -44 -141 -201 -47 -198 -45 -246 11 -269
21 -9 93 -11 253 -9 289 4 276 -3 323 186 54 219 55 255 3 284 -25 14 -368 21
-449 9z"/>
<path d="M4495 6928 c-6 -17 -95 -447 -95 -460 0 -6 91 -9 253 -6 286 4 301 8
338 79 35 69 79 312 65 357 -11 33 -78 42 -326 42 -175 0 -232 -3 -235 -12z"/>
<path d="M5520 6774 c-63 -80 -119 -152 -123 -160 -7 -12 20 -14 178 -14 170
0 185 1 185 18 0 15 -22 77 -88 247 -11 27 -24 50 -28 52 -5 1 -61 -63 -124
-143z"/>
<path d="M6656 6928 c-4 -15 -83 -385 -93 -437 l-6 -33 254 4 c276 4 297 8
333 63 23 34 76 262 76 324 0 84 -6 85 -307 89 -202 3 -254 1 -257 -10z"/>
<path d="M11694 6913 c-3 -15 -12 -53 -19 -83 -7 -30 -16 -67 -19 -82 l-6 -28
222 0 c243 0 260 4 289 55 21 37 33 125 20 145 -9 12 -50 16 -245 18 l-235 4
-7 -29z"/>
<path d="M14155 6768 c-66 -83 -121 -155 -123 -160 -2 -4 82 -8 187 -8 105 0
191 1 191 3 0 13 -120 312 -126 314 -5 1 -63 -65 -129 -149z"/>
</g>
</svg>
