<?xml version="1.0" standalone="no"?>
<!DOCTYPE svg PUBLIC "-//W3C//DTD SVG 20010904//EN"
 "http://www.w3.org/TR/2001/REC-SVG-20010904/DTD/svg10.dtd">
<svg version="1.0" xmlns="http://www.w3.org/2000/svg"
 width="280.000000pt" height="280.000000pt" viewBox="0 0 280.000000 280.000000"
 preserveAspectRatio="xMidYMid meet">

<g transform="translate(0.000000,280.000000) scale(0.100000,-0.100000)"
fill="#000000" stroke="none">
<path d="M1415 2396 c-57 -14 -100 -35 -141 -69 -17 -13 -56 -28 -94 -36 -103
-20 -171 -63 -217 -137 -19 -30 -39 -48 -63 -55 -82 -27 -156 -100 -186 -181
-18 -48 -21 -165 -5 -215 l10 -33 -190 0 c-261 0 -270 -5 -303 -160 -9 -41
-38 -180 -65 -308 l-50 -233 23 -70 c13 -40 35 -82 50 -97 l26 -27 1123 -2
c692 -1 1134 2 1153 8 63 19 72 40 119 270 24 118 57 279 74 358 18 84 28 154
24 170 -18 73 -65 97 -176 87 -40 -3 -79 -6 -87 -5 -8 0 -93 3 -187 5 -95 3
-173 7 -173 8 0 2 6 19 14 37 29 69 36 142 21 214 -26 125 -108 220 -217 253
-39 12 -60 24 -67 39 -17 37 -92 113 -139 140 -49 29 -138 53 -192 52 -19 0
-57 -6 -85 -13z m201 -134 c54 -28 111 -92 124 -141 10 -39 12 -41 51 -41 164
0 266 -188 183 -340 -34 -62 -75 -96 -140 -116 -71 -21 -819 -20 -891 1 -112
33 -164 166 -108 276 26 50 111 99 171 99 17 0 24 7 29 29 18 84 119 155 211
150 39 -3 49 1 82 33 63 60 112 79 193 74 30 -2 73 -13 95 -24z m-885 -722
c24 -13 25 -60 3 -161 -20 -88 -37 -124 -66 -140 -12 -6 -79 -14 -149 -17
l-127 -5 -17 -88 -17 -89 -54 0 c-37 0 -54 4 -54 13 1 6 17 89 38 182 l37 170
53 3 53 3 -6 -45 -7 -46 90 0 c60 0 93 4 100 13 17 21 31 104 19 116 -7 7 -65
11 -150 11 l-139 0 6 31 c3 17 6 38 6 45 0 11 34 14 181 14 105 0 188 -4 200
-10z m508 -27 c-5 -21 -9 -41 -9 -45 0 -5 -67 -8 -150 -8 -180 0 -166 12 -204
-175 -25 -122 -26 -130 -9 -142 12 -9 60 -13 156 -13 127 0 138 -1 133 -17 -3
-10 -8 -30 -12 -45 l-6 -28 -168 0 c-182 0 -225 8 -234 45 -8 31 68 390 89
422 9 13 26 28 38 33 12 5 104 9 203 9 l182 1 -9 -37z m321 30 c-1 -41 -13
-52 -63 -55 l-51 -3 -17 -75 c-9 -41 -24 -110 -34 -152 l-16 -78 -40 0 c-36 0
-39 2 -34 23 20 84 55 259 55 272 0 11 -11 15 -43 15 -43 0 -43 1 -39 30 l4
30 139 0 c77 0 139 -3 139 -7z m340 -7 c0 -45 -5 -46 -162 -46 -133 0 -149 2
-144 16 3 9 6 22 6 30 0 11 27 14 150 14 123 0 150 -3 150 -14z m346 -2 c-3
-9 -6 -22 -6 -30 0 -11 -21 -14 -103 -14 -67 0 -109 -4 -119 -12 -18 -14 -63
-202 -53 -219 4 -5 53 -9 111 -9 96 0 104 -1 104 -19 0 -49 -5 -51 -137 -51
-68 0 -133 5 -144 10 -23 13 -25 53 -5 142 8 35 20 89 26 121 19 94 25 97 191
97 125 0 140 -2 135 -16z m108 -41 c-22 -95 -24 -93 55 -93 l70 0 11 58 c19
94 17 92 60 92 l38 0 -34 -162 c-19 -90 -36 -173 -39 -185 -4 -19 -12 -23 -45
-23 -45 0 -44 -5 -19 90 17 68 16 70 -56 70 -75 0 -76 -1 -95 -102 l-11 -58
-41 0 c-37 0 -40 2 -35 23 4 12 20 90 37 172 17 83 33 156 35 163 3 7 21 12
43 12 l39 0 -13 -57z m-698 -68 c-6 -24 -5 -25 45 -25 43 0 50 -3 45 -16 -3
-9 -6 -22 -6 -30 0 -10 -13 -14 -49 -14 -56 0 -56 0 -65 -52 l-7 -38 111 0
110 0 -6 -27 c-4 -16 -9 -31 -11 -35 -2 -5 -69 -8 -149 -8 -122 0 -144 2 -144
15 0 9 11 67 25 131 14 64 25 117 25 120 0 2 18 4 41 4 39 0 41 -1 35 -25z
m-290 -327 c-9 -56 -11 -58 -58 -58 -37 0 -40 2 -34 23 3 12 6 28 6 35 0 6 5
12 10 12 6 0 10 -11 10 -25 0 -36 36 -34 43 2 6 31 -6 43 -34 36 -10 -3 -19 0
-19 6 0 6 18 11 41 11 l42 0 -7 -42z m224 30 c0 -31 -13 -88 -20 -88 -4 0 -10
9 -13 20 -3 11 -12 20 -20 20 -8 0 -17 -9 -20 -20 -3 -11 -11 -20 -17 -20 -7
0 -10 7 -6 16 3 9 6 24 6 35 0 10 7 19 15 19 8 0 15 -4 15 -10 0 -14 27 -13
36 1 9 15 -13 28 -37 22 -10 -3 -19 0 -19 6 0 6 17 11 40 11 25 0 40 -5 40
-12z m225 2 c-3 -5 -21 -10 -40 -10 -19 0 -37 5 -40 10 -4 6 12 10 40 10 28 0
44 -4 40 -10z m199 -12 c3 -13 6 -35 6 -49 0 -24 -3 -26 -44 -26 l-45 0 25 49
c26 52 48 61 58 26z m193 -9 l6 -31 19 31 c32 49 47 41 35 -19 -9 -48 -27 -69
-27 -32 -1 16 -1 16 -11 0 -14 -25 -39 -22 -40 5 l-2 22 -4 -22 c-8 -40 -26
-26 -19 15 3 20 6 43 6 50 0 26 31 11 37 -19z m264 22 c-45 -8 -54 -31 -12
-31 31 0 38 -11 25 -44 -7 -18 -84 -23 -84 -6 0 6 13 10 29 10 17 0 33 5 36
10 4 6 -7 10 -24 10 -26 0 -31 4 -31 23 0 33 7 37 54 36 l41 -2 -34 -6z m-706
-31 c19 -9 19 -9 -2 -16 -33 -9 -28 -24 7 -24 17 0 30 -4 30 -10 0 -5 -18 -10
-40 -10 -41 0 -50 13 -34 54 7 18 10 18 39 6z m535 -90 c0 -5 -5 -10 -11 -10
-5 0 -7 5 -4 10 3 6 8 10 11 10 2 0 4 -4 4 -10z m-1006 -26 c9 -3 16 -14 15
-23 0 -10 -2 -11 -6 -3 -2 6 -22 12 -43 12 -32 0 -39 -4 -44 -25 -4 -14 -4
-30 -1 -35 9 -14 59 -12 74 3 11 10 13 9 9 -3 -3 -10 -20 -16 -51 -18 l-47 -3
0 35 c0 54 41 80 94 60z m135 -3 c12 -8 13 -18 5 -48 -9 -38 -9 -38 -59 -38
-47 0 -50 2 -53 27 -6 50 62 87 107 59z m725 3 c9 -3 16 -14 15 -23 0 -10 -2
-11 -6 -3 -2 6 -22 12 -43 12 -32 0 -39 -4 -44 -25 -4 -14 -4 -30 -1 -35 9
-14 59 -12 74 3 11 10 13 9 9 -3 -3 -10 -20 -16 -51 -18 l-47 -3 0 35 c0 54
41 80 94 60z m174 -6 c13 -16 4 -63 -13 -78 -8 -6 -33 -10 -57 -8 -42 3 -43 4
-41 38 1 19 9 40 19 47 23 17 78 17 92 1z m-2013 -5 c-24 -6 -35 -21 -35 -50
0 -12 -5 -25 -10 -28 -7 -4 -8 7 -4 33 6 37 4 41 -17 45 -13 2 1 4 31 4 30 1
46 -2 35 -4z m39 -30 c-3 -21 -11 -42 -16 -48 -9 -10 -1 60 9 78 10 17 13 4 7
-30z m79 30 c-52 -5 -58 -23 -8 -23 19 0 35 -4 35 -10 0 -5 -18 -10 -40 -10
-54 0 -56 -27 -2 -33 35 -3 34 -4 -9 -5 l-47 -2 9 38 c5 20 9 40 9 45 0 4 21
6 48 5 l47 -1 -42 -4z m106 -29 l30 -37 6 37 c4 20 12 36 17 36 5 0 7 -8 4
-17 -3 -10 -8 -30 -12 -45 -8 -37 -17 -35 -50 7 -31 41 -44 44 -44 13 0 -13
-5 -30 -11 -38 -8 -11 -9 -7 -5 19 3 18 6 40 6 47 0 25 28 14 59 -22z m181 7
c0 -42 -24 -61 -76 -61 l-45 0 7 38 c9 52 9 52 65 52 48 0 49 -1 49 -29z m99
-12 c7 -23 10 -44 7 -47 -3 -3 -6 0 -6 6 0 16 -72 16 -88 0 -24 -24 -11 5 19
43 17 21 36 39 43 39 7 0 18 -18 25 -41z m203 6 c-5 -44 -19 -55 -73 -55 -49
0 -49 0 -43 28 14 65 12 63 67 60 51 -3 52 -3 49 -33z m81 28 c-49 -5 -59 -23
-13 -23 17 0 30 -4 30 -10 0 -5 -16 -10 -35 -10 -50 0 -48 -27 3 -33 34 -3 33
-4 -11 -5 l-48 -2 7 38 c9 52 10 52 62 50 l47 -1 -42 -4z m400 -28 l17 -35 33
36 c43 48 57 42 40 -16 l-12 -45 2 38 3 37 -37 -36 -37 -36 -20 37 -19 38 -7
-37 c-10 -51 -20 -38 -11 13 8 50 26 52 48 6z m215 13 c-2 -19 -10 -24 -44
-26 -31 -2 -44 -9 -53 -25 -10 -20 -11 -18 -6 12 3 18 5 40 5 47 0 10 14 14
51 14 47 0 50 -2 47 -22z m29 -15 c-2 -33 1 -38 21 -41 30 -4 52 14 52 44 0
12 5 26 12 30 8 5 9 -2 5 -26 -10 -50 -25 -61 -71 -58 -39 3 -41 5 -39 32 2
33 10 56 17 56 3 0 4 -17 3 -37z m188 30 c-24 -6 -35 -21 -35 -50 0 -12 -5
-25 -10 -28 -7 -4 -8 7 -4 33 6 37 4 41 -17 45 -13 2 1 4 31 4 30 1 46 -2 35
-4z m91 -28 c18 -44 19 -64 2 -47 -7 7 -26 12 -43 12 -17 0 -36 -5 -43 -12 -7
-7 -12 -8 -12 -4 0 13 61 86 71 86 6 0 17 -16 25 -35z m172 -7 c-10 -45 -18
-61 -18 -36 0 30 13 78 20 78 4 0 4 -19 -2 -42z m212 8 c26 -35 40 -31 40 12
0 12 5 22 10 22 6 0 8 -11 4 -27 -17 -76 -20 -78 -58 -28 -29 38 -46 38 -46 0
0 -13 -5 -27 -11 -30 -10 -7 -3 58 8 78 9 15 29 5 53 -27z"/>
<path d="M1450 2228 c-45 -13 -85 -42 -107 -78 -21 -37 -33 -41 -75 -28 -77
23 -161 -31 -183 -119 l-12 -48 -57 -7 c-100 -13 -146 -57 -146 -142 0 -60 16
-92 59 -119 35 -22 43 -22 434 -25 458 -4 479 -1 540 67 39 44 52 88 45 156
-10 87 -83 144 -186 145 -33 0 -54 5 -57 13 -2 6 -9 32 -16 57 -15 59 -71 113
-132 129 -53 13 -60 13 -107 -1z m89 -203 c27 -13 58 -36 69 -50 16 -20 29
-25 61 -25 52 0 103 -25 99 -48 -4 -18 -23 -19 -85 -6 -27 5 -37 1 -63 -24
-16 -17 -30 -38 -30 -46 0 -21 -39 -21 -47 1 -4 9 3 34 15 56 21 39 21 41 5
60 -50 55 -145 72 -218 38 -70 -31 -97 -74 -107 -171 -2 -18 -10 -26 -27 -28
-23 -4 -23 -2 -19 62 3 52 10 74 34 108 64 93 208 127 313 73z"/>
<path d="M1981 1084 c0 -11 3 -14 6 -6 3 7 2 16 -1 19 -3 4 -6 -2 -5 -13z"/>
<path d="M1340 944 c-13 -33 -6 -44 28 -44 36 0 48 9 56 43 6 26 5 27 -34 27
-34 0 -42 -4 -50 -26z"/>
<path d="M2234 946 c-8 -34 2 -46 36 -46 30 0 50 22 50 54 0 12 -10 16 -40 16
-34 0 -41 -4 -46 -24z"/>
<path d="M626 954 c-14 -36 -7 -54 22 -54 36 0 49 10 57 43 7 26 6 27 -33 27
-27 0 -42 -5 -46 -16z"/>
<path d="M772 948 c-18 -18 -15 -28 8 -28 13 0 20 7 20 20 0 23 -10 26 -28 8z"/>
<path d="M926 948 c-10 -41 -7 -48 23 -48 34 0 61 23 61 51 0 15 -7 19 -39 19
-32 0 -40 -4 -45 -22z"/>
<path d="M1637 963 c-16 -16 -4 -24 30 -21 48 4 57 28 11 28 -19 0 -38 -3 -41
-7z"/>
<path d="M1982 948 c-18 -18 -15 -28 8 -28 13 0 20 7 20 20 0 23 -10 26 -28 8z"/>
</g>
</svg>
